<svg id="Layer_1" data-name="Layer 1" xmlns="http://www.w3.org/2000/svg" viewBox="0 0 297 297"><title>logo</title><circle cx="148.5" cy="148.5" r="148.5" fill="#141d1f"/><path d="M227.31,232H211.69a4.69,4.69,0,0,1-4.69-4.69V124.79a4.69,4.69,0,0,0-9.13-1.47l-26.6,80.25A18.15,18.15,0,0,1,154,216H143a18.15,18.15,0,0,1-17.23-12.44l-26.6-80.25A4.69,4.69,0,0,0,90,124.79V227.31A4.69,4.69,0,0,1,85.31,232H69.69A4.69,4.69,0,0,1,65,227.31V93A28,28,0,0,1,93,65h10.23a4.69,4.69,0,0,1,4.46,3.25L147.29,191h2.42L184.07,84.43A28,28,0,0,1,210.74,65h16.57A4.69,4.69,0,0,1,232,69.69V227.31A4.69,4.69,0,0,1,227.31,232Z" fill="#f2f2f2"/></svg>